<?xml version="1.0" encoding="utf-8"?>
<!-- Generator: Adobe Illustrator 16.0.4, SVG Export Plug-In . SVG Version: 6.00 Build 0)  -->
<!DOCTYPE svg PUBLIC "-//W3C//DTD SVG 1.1//EN" "http://www.w3.org/Graphics/SVG/1.1/DTD/svg11.dtd">
<svg version="1.1" xmlns="http://www.w3.org/2000/svg" xmlns:xlink="http://www.w3.org/1999/xlink" x="0px" y="0px" width="450px"
	 height="450px" viewBox="0 0 450 450" style="enable-background:new 0 0 450 450;" xml:space="preserve">
<style type="text/css">
<![CDATA[
	.st0{fill:#179647;}
	.st1{enable-background:new    ;}
	.st2{fill:#58BB7D;}
]]>
</style>
<g id="Layer_1__x2B__CFS_xA0_Image_1_">
	<image style="overflow:visible;" width="450" height="450" id="Layer_1__x2B__CFS_xA0_Image" xlink:href="7224A0CCE0D427C9.png" >
	</image>
</g>
<g id="Rectangle_1_1_" class="st1">
	<g id="Rectangle_1">
		<g>
			<rect x="39.4" y="151.9" class="st2" width="376.9" height="264.4"/>
		</g>
	</g>
</g>
<g id="Rounded_Rectangle_1_1_" class="st1">
	<g id="Rounded_Rectangle_1">
		<g>
			<path class="st0" d="M210.4,161H63.6c-6.9,0-12.6,5.8-12.6,12.9v50.3c0,7.1,5.6,12.9,12.6,12.9h146.9c6.9,0,12.6-5.8,12.6-12.9
				v-50.3C223,166.8,217.4,161,210.4,161z"/>
		</g>
	</g>
</g>
<g id="Rounded_Rectangle_1_copy_1_" class="st1">
	<g id="Rounded_Rectangle_1_copy">
		<g>
			<path class="st0" d="M391.4,161H244.6c-6.9,0-12.6,5.8-12.6,12.9v50.3c0,7.1,5.6,12.9,12.6,12.9h146.9c6.9,0,12.6-5.8,12.6-12.9
				v-50.3C404,166.8,398.4,161,391.4,161z"/>
		</g>
	</g>
</g>
<g id="Rounded_Rectangle_1_copy_2_1_" class="st1">
	<g id="Rounded_Rectangle_1_copy_2">
		<g>
			<path class="st0" d="M210.4,245.5H63.6c-6.9,0-12.6,5.8-12.6,12.9v50.3c0,7.1,5.6,12.9,12.6,12.9h146.9c6.9,0,12.6-5.8,12.6-12.9
				v-50.3C223,251.3,217.4,245.5,210.4,245.5z"/>
		</g>
	</g>
</g>
<g id="Rounded_Rectangle_1_copy_3_1_" class="st1">
	<g id="Rounded_Rectangle_1_copy_3">
		<g>
			<path class="st0" d="M391.4,245.5H244.6c-6.9,0-12.6,5.8-12.6,12.9v50.3c0,7.1,5.6,12.9,12.6,12.9h146.9
				c6.9,0,12.6-5.8,12.6-12.9v-50.3C404,251.3,398.4,245.5,391.4,245.5z"/>
		</g>
	</g>
</g>
<g id="Rounded_Rectangle_1_copy_4_1_" class="st1">
	<g id="Rounded_Rectangle_1_copy_4">
		<g>
			<path class="st0" d="M210.4,330.9H63.6c-6.9,0-12.6,5.8-12.6,12.9v50.3c0,7.1,5.6,12.9,12.6,12.9h146.9c6.9,0,12.6-5.8,12.6-12.9
				v-50.3C223,336.7,217.4,330.9,210.4,330.9z"/>
		</g>
	</g>
</g>
<g id="Rounded_Rectangle_1_copy_5_1_" class="st1">
	<g id="Rounded_Rectangle_1_copy_5">
		<g>
			<path class="st0" d="M391.4,330.9H244.6c-6.9,0-12.6,5.8-12.6,12.9v50.3c0,7.1,5.6,12.9,12.6,12.9h146.9
				c6.9,0,12.6-5.8,12.6-12.9v-50.3C404,336.7,398.4,330.9,391.4,330.9z"/>
		</g>
	</g>
</g>
</svg>
